<?xml version="1.0" encoding="utf-8"?>
<!-- Generator: Adobe Illustrator 18.1.1, SVG Export Plug-In . SVG Version: 6.00 Build 0)  -->
<svg version="1.1" id="Layer_1" 
	 xmlns="http://www.w3.org/2000/svg" xmlns:xlink="http://www.w3.org/1999/xlink" x="0px" y="0px" viewBox="0 0 1391.6 431.3"
	 enable-background="new 0 0 1391.6 431.3" xml:space="preserve">
<metadata>
	<sfw>
		<slices></slices>
		<sliceSourceBounds  width="1287.3" height="116.9" x="-337.4" y="-454.9" bottomLeftOrigin="true"></sliceSourceBounds>
	</sfw>
</metadata>
<path fill="#F7F9F8" d="M336.5,182.6c0,11.1-9,20.1-20.1,20.1c-6.6,0-23.7-4.5-28.1-4.5c-5.6,0-21.2,0.4-25.9,0.4
	c-7.4,0-13.4-6-13.4-13.4c0-2.5,0.7-4.8,1.9-6.8c-1.2-1.9-1.9-4.2-1.9-6.6c0-7.2,6-13,13.4-13c3.2,0,6.2,1.1,8.5,3
	c4.1-5.1,10.4-8.3,17.4-8.3c8.2,0,15.4,4.4,19.2,11c2.7-1.3,5.7-2.1,8.9-2.1C327.5,162.5,336.5,171.5,336.5,182.6z"/>
<path opacity="0.46" fill="#F7F9F8" d="M99.1,231.4c0,8-6.5,14.4-14.4,14.4c-4.7,0-17-3.2-20.2-3.2c-4,0-15.3,0.3-18.6,0.3
	c-5.3,0-9.6-4.3-9.6-9.6c0-1.8,0.5-3.5,1.3-4.9c-0.9-1.4-1.3-3-1.3-4.7c0-5.1,4.3-9.3,9.6-9.3c2.3,0,4.5,0.8,6.1,2.1
	c2.9-3.6,7.4-6,12.5-6c5.9,0,11,3.2,13.8,7.9c1.9-1,4.1-1.5,6.4-1.5C92.6,216.9,99.1,223.4,99.1,231.4z"/>
<path fill="#F7F9F8" d="M621.6,217.2c0,19.9-16.1,36-36,36c-6,0-76.7-10.2-79.2-10.2c-14.3,0-25.8-11.6-25.8-25.8
	c0-7.5,3.2-14.3,8.4-19c-1.3-3.5-2-7.2-2-11.1c0-17.3,14-31.3,31.3-31.3c4.9,0,9.5,1.1,13.6,3.1c6.5-5.3,14.7-8.5,23.8-8.5
	c18.7,0,34.2,13.7,37,31.6C609.2,185.2,621.6,199.8,621.6,217.2z"/>
<path fill="#F7F9F8" d="M835.4,204.7c2.1,3.4,2.2,11.1-5,16.9c-9.2,7.3-26.6,7.9-36.9,4.7c-4.7-1.5-36.1,2.5-42.3-0.7
	c-8.9-4.5-18.3-15.2-18.3-25.2c0-10,8.1-18,18-18c3.4,0,6.6,0.9,9.3,2.6c2.4-13.4,14-23.5,28.1-23.5c11.9,0,22.1,7.3,26.4,17.7
	c2.8-2.1,6.2-3.4,10-3.4c9.1,0,16.5,7.4,16.5,16.5C841,197.3,838.8,201.7,835.4,204.7z"/>
<path opacity="0.55" fill="#F7F9F8" d="M268.2,184.8c0,5.2-6.5,9.5-11.9,10c-5,4.3-12.1,7.3-17,7.3c-3.5,0-6.8-1.2-9.4-3.2
	c-1.4,1.5-3.5,2.4-5.7,2.4c-4.3,0-7.7-3.3-7.7-7.4c0-0.8,0.1-1.5,0.4-2.3c-1.6-1.5-2.6-3.7-2.6-6.1c0-4.6,3.7-8.3,8.3-8.3
	c1.4,0,2.8,0.4,3.9,1c2.7-4.2,7.5-6.9,12.8-6.9c4.2,0,9.8,1.2,14.4,3.4c0.5-0.1,1-0.1,1.5-0.1C260.7,174.7,268.2,179.3,268.2,184.8z
	"/>
<path opacity="0.59" fill="#F7F9F8" d="M639.3,183.8c0,7.8-6.3,14-14,14c-4.3,0-8.1-1.9-10.7-4.9c0,0,0-0.1-0.1-0.1
	c0,0,0,0.1-0.1,0.1c-1.9,5-6.8,8.6-12.5,8.6c-5.8,0-10.8-3.7-12.6-8.9c-5.4-2-9.2-7.1-9.2-13.1c0-7.7,6.3-14,14-14
	c1.6,0,3.2,0.3,4.6,0.8c2.9-3,6.9-4.8,11.4-4.8c6,0,11.3,3.4,14,8.3c0.3,0,0.7,0,1,0C633,169.7,639.3,176,639.3,183.8z"/>
<path opacity="0.59" fill="#F7F9F8" d="M651.2,203.8c0,7.8-6.3,14-14,14c-4.3,0-8.1-1.9-10.7-4.9c0,0,0-0.1-0.1-0.1
	c0,0,0,0.1-0.1,0.1c-1.9,5-6.8,8.6-12.5,8.6c-5.8,0-10.8-3.7-12.6-8.9c-5.4-2-9.2-7.1-9.2-13.1c0-7.7,6.3-14,14-14
	c1.6,0,3.2,0.3,4.6,0.8c2.9-3,6.9-4.8,11.4-4.8c6,0,11.3,3.4,14,8.3c0.3,0,0.7,0,1,0C644.9,189.8,651.2,196,651.2,203.8z"/>
<path opacity="0.59" fill="#F7F9F8" d="M948,156.4c-0.5-7.7,5.4-14.4,13.1-14.9c4.3-0.3,11,4.3,11,4.3c0,0,6.3-9.1,12-9.5
	c5.8-0.4,11,3,13.1,8.1c5.5,1.6,9.6,6.5,10,12.5c0.5,7.7-5.4,14.4-13.1,14.8c-1.6,0.1-27.2,2.4-30.2-2.4
	C963.6,169.5,948.5,164.1,948,156.4z"/>
<path opacity="0.59" fill="#F7F9F8" d="M1254.1,174.5c-0.6-9.1,6.3-16.9,15.4-17.4c5-0.3,12.9,5.1,12.9,5.1c0,0,7.4-10.7,14-11.1
	c6.8-0.4,12.8,3.6,15.4,9.5c6.4,1.9,11.3,7.6,11.7,14.7c0.6,9-6.3,16.8-15.3,17.4c-1.9,0.1-31.9,2.8-35.4-2.8
	C1272.3,189.8,1254.6,183.6,1254.1,174.5z"/>
</svg>
