<?xml version="1.0" encoding="utf-8"?>
<!-- Generator: Adobe Illustrator 18.1.1, SVG Export Plug-In . SVG Version: 6.00 Build 0)  -->
<svg version="1.1" id="Layer_1"   xmlns="http://www.w3.org/2000/svg" xmlns:xlink="http://www.w3.org/1999/xlink" x="0px" y="0px" viewBox="0 0 150.7 131.8"
	 enable-background="new 0 0 150.7 131.8" xml:space="preserve">
<metadata>
	<sfw >
		<slices></slices>
		<sliceSourceBounds  width="1226.9" height="185.3" x="-306.9" y="-447.5" bottomLeftOrigin="true"></sliceSourceBounds>
	</sfw>
</metadata>
<path fill="#F7F9F8" d="M144.1,77c0,11.1-9,20.1-20.1,20.1c-6.6,0-23.7-4.5-28.1-4.5c-5.6,0-21.2,0.4-25.9,0.4
	c-7.4,0-13.4-6-13.4-13.4c0-2.5,0.7-4.8,1.9-6.8c-1.2-1.9-1.9-4.2-1.9-6.6c0-7.2,6-13,13.4-13c3.2,0,6.2,1.1,8.5,3
	c4.1-5.1,10.4-8.3,17.4-8.3c8.2,0,15.4,4.4,19.2,11c2.7-1.3,5.7-2.1,8.9-2.1C135.2,56.9,144.1,65.9,144.1,77z"/>
<path opacity="0.55" fill="#F7F9F8" d="M75.8,79.2c0,5.2-6.5,9.5-11.9,10c-5,4.3-12.1,7.3-17,7.3c-3.5,0-6.8-1.2-9.4-3.2
	c-1.4,1.5-3.5,2.4-5.7,2.4c-4.3,0-7.7-3.3-7.7-7.4c0-0.8,0.1-1.5,0.4-2.3c-1.6-1.5-2.6-3.7-2.6-6.1c0-4.6,3.7-8.3,8.3-8.3
	c1.4,0,2.8,0.4,3.9,1c2.7-4.2,7.5-6.9,12.8-6.9c4.2,0,9.8,1.2,14.4,3.4c0.5-0.1,1-0.1,1.5-0.1C68.3,69.1,75.8,73.7,75.8,79.2z"/>
</svg>
