<?xml version="1.0" encoding="utf-8"?>
<!-- Generator: Adobe Illustrator 18.1.1, SVG Export Plug-In . SVG Version: 6.00 Build 0)  -->
<svg version="1.1" id="Layer_1" xmlns="http://www.w3.org/2000/svg" xmlns:xlink="http://www.w3.org/1999/xlink" x="0px" y="0px" viewBox="0 0 161.4 140.2"
	 enable-background="new 0 0 161.4 140.2" xml:space="preserve">
<metadata>
	<sfw>
		<slices></slices>
		<sliceSourceBounds  width="1226.9" height="185.3" x="-306.9" y="-447.5" bottomLeftOrigin="true"></sliceSourceBounds>
	</sfw>
</metadata>
<path fill="#F7F9F8" d="M120.1,76.8c1.8,2.9,1.9,9.5-4.3,14.5c-7.9,6.3-62.6,6.2-68,3.5C40.1,91,32.1,81.7,32.1,73.2
	c0-8.6,6.9-15.5,15.5-15.5c2.9,0,5.6,0.8,8,2.2c2-11.5,12.1-20.2,24.1-20.2c10.2,0,19,6.3,22.7,15.2c2.4-1.8,5.3-2.9,8.5-2.9
	c7.8,0,14.1,6.3,14.1,14.1C125,70.4,123.1,74.2,120.1,76.8z"/>
</svg>
