<?xml version="1.0" encoding="utf-8"?>
<!-- Generator: Adobe Illustrator 18.1.1, SVG Export Plug-In . SVG Version: 6.00 Build 0)  -->
<svg version="1.1" id="Layer_1"  xmlns="http://www.w3.org/2000/svg" xmlns:xlink="http://www.w3.org/1999/xlink" x="0px" y="0px" viewBox="0 0 151.8 120.8"
	 enable-background="new 0 0 151.8 120.8" xml:space="preserve">
<metadata>
	<sfw>
		<slices></slices>
		<sliceSourceBounds  width="1226.9" height="185.3" x="-306.9" y="-447.5" bottomLeftOrigin="true"></sliceSourceBounds>
	</sfw>
</metadata>
<path fill="#F7F9F8" d="M117.7,78.2c2.1,3.4,2.2,11.1-5,16.9c-9.2,7.3-26.6,7.9-36.9,4.7c-4.7-1.5-36.1,2.5-42.3-0.7
	c-8.9-4.5-18.3-15.2-18.3-25.2c0-10,8.1-18,18-18c3.4,0,6.6,0.9,9.3,2.6c2.4-13.4,14-23.5,28.1-23.5c11.9,0,22.1,7.3,26.4,17.7
	c2.8-2.1,6.2-3.4,10-3.4c9.1,0,16.5,7.4,16.5,16.5C123.3,70.7,121.1,75.2,117.7,78.2z"/>
</svg>
