<?xml version="1.0" encoding="utf-8"?>
<!-- Generator: Adobe Illustrator 18.1.1, SVG Export Plug-In . SVG Version: 6.00 Build 0)  -->


<svg version="1.1" id="Layer_1" 
	 xmlns="http://www.w3.org/2000/svg" xmlns:xlink="http://www.w3.org/1999/xlink" x="0px" y="0px" viewBox="0 0 150.7 131.8"
	 enable-background="new 0 0 150.7 131.8" xml:space="preserve">
<metadata>
	<sfw >
		<slices></slices>
		<sliceSourceBounds  width="1226.9" height="185.3" x="-306.9" y="-447.5" bottomLeftOrigin="true"></sliceSourceBounds>
	</sfw>
</metadata>
<path fill="#F7F9F8" d="M144.1,77c0,11.1-9,20.1-20.1,20.1c-6.6,0-23.7-4.5-28.1-4.5c-5.6,0-21.2,0.4-25.9,0.4
	c-7.4,0-13.4-6-13.4-13.4c0-2.5,0.7-4.8,1.9-6.8c-1.2-1.9-1.9-4.2-1.9-6.6c0-7.2,6-13,13.4-13c3.2,0,6.2,1.1,8.5,3
	c4.1-5.1,10.4-8.3,17.4-8.3c8.2,0,15.4,4.4,19.2,11c2.7-1.3,5.7-2.1,8.9-2.1C135.2,56.9,144.1,65.9,144.1,77z"/>
<path opacity="0.46" fill="#F7F9F8" d="M-93.3,125.8c0,8-6.5,14.4-14.4,14.4c-4.7,0-17-3.2-20.2-3.2c-4,0-15.3,0.3-18.6,0.3
	c-5.3,0-9.6-4.3-9.6-9.6c0-1.8,0.5-3.5,1.3-4.9c-0.9-1.4-1.3-3-1.3-4.7c0-5.1,4.3-9.3,9.6-9.3c2.3,0,4.5,0.8,6.1,2.1
	c2.9-3.6,7.4-6,12.5-6c5.9,0,11,3.2,13.8,7.9c1.9-1,4.1-1.5,6.4-1.5C-99.7,111.3-93.3,117.8-93.3,125.8z"/>
<path fill="#F7F9F8" d="M429.2,35.7c0,19.9-16.1,36-36,36c-6,0-76.7-10.2-79.2-10.2c-14.3,0-25.8-11.6-25.8-25.8
	c0-7.5,3.2-14.3,8.4-19c-1.3-3.5-2-7.2-2-11.1c0-17.3,14-31.3,31.3-31.3c4.9,0,9.5,1.1,13.6,3.1c6.5-5.3,14.7-8.5,23.8-8.5
	c18.7,0,34.2,13.7,37,31.6C416.8,3.7,429.2,18.3,429.2,35.7z"/>
<path fill="#F7F9F8" d="M643,23.2c2.1,3.4,2.2,11.1-5,16.9c-9.2,7.3-26.6,7.9-36.9,4.7c-4.7-1.5-36.1,2.5-42.3-0.7
	c-8.9-4.5-18.3-15.2-18.3-25.2c0-10,8.1-18,18-18c3.4,0,6.6,0.9,9.3,2.6c2.4-13.4,14-23.5,28.1-23.5c11.9,0,22.1,7.3,26.4,17.7
	c2.8-2.1,6.2-3.4,10-3.4c9.1,0,16.5,7.4,16.5,16.5C648.6,15.8,646.4,20.2,643,23.2z"/>
<path fill="#F7F9F8" d="M1065.9,76.8c1.8,2.9,1.9,9.5-4.3,14.5c-7.9,6.3-62.6,6.2-68,3.5c-7.6-3.8-15.7-13.1-15.7-21.6
	c0-8.6,6.9-15.5,15.5-15.5c2.9,0,5.6,0.8,8,2.2c2-11.5,12.1-20.2,24.1-20.2c10.2,0,19,6.3,22.7,15.2c2.4-1.8,5.3-2.9,8.5-2.9
	c7.8,0,14.1,6.3,14.1,14.1C1070.8,70.4,1068.9,74.2,1065.9,76.8z"/>
<path opacity="0.55" fill="#F7F9F8" d="M75.8,79.2c0,5.2-6.5,9.5-11.9,10c-5,4.3-12.1,7.3-17,7.3c-3.5,0-6.8-1.2-9.4-3.2
	c-1.4,1.5-3.5,2.4-5.7,2.4c-4.3,0-7.7-3.3-7.7-7.4c0-0.8,0.1-1.5,0.4-2.3c-1.6-1.5-2.6-3.7-2.6-6.1c0-4.6,3.7-8.3,8.3-8.3
	c1.4,0,2.8,0.4,3.9,1c2.7-4.2,7.5-6.9,12.8-6.9c4.2,0,9.8,1.2,14.4,3.4c0.5-0.1,1-0.1,1.5-0.1C68.3,69.1,75.8,73.7,75.8,79.2z"/>
<g>
	<path opacity="0.59" fill="#F7F9F8" d="M446.9,2.3c0,7.8-6.3,14-14,14c-4.3,0-8.1-1.9-10.7-4.9c0,0,0-0.1-0.1-0.1
		c0,0,0,0.1-0.1,0.1c-1.9,5-6.8,8.6-12.5,8.6c-5.8,0-10.8-3.7-12.6-8.9c-5.4-2-9.2-7.1-9.2-13.1c0-7.7,6.3-14,14-14
		c1.6,0,3.2,0.3,4.6,0.8c2.9-3,6.9-4.8,11.4-4.8c6,0,11.3,3.4,14,8.3c0.3,0,0.7,0,1,0C440.6-11.7,446.9-5.5,446.9,2.3z"/>
	<path opacity="0.59" fill="#F7F9F8" d="M458.8,22.3c0,7.8-6.3,14-14,14c-4.3,0-8.1-1.9-10.7-4.9c0,0,0-0.1-0.1-0.1
		c0,0,0,0.1-0.1,0.1c-1.9,5-6.8,8.6-12.5,8.6c-5.8,0-10.8-3.7-12.6-8.9c-5.4-2-9.2-7.1-9.2-13.1c0-7.7,6.3-14,14-14
		c1.6,0,3.2,0.3,4.6,0.8c2.9-3,6.9-4.8,11.4-4.8c6,0,11.3,3.4,14,8.3c0.3,0,0.7,0,1,0C452.5,8.3,458.8,14.5,458.8,22.3z"/>
</g>
<path opacity="0.59" fill="#F7F9F8" d="M755.6-25.1c-0.5-7.7,5.4-14.4,13.1-14.9c4.3-0.3,11,4.3,11,4.3c0,0,6.3-9.1,12-9.5
	c5.8-0.4,11,3,13.1,8.1c5.5,1.6,9.6,6.5,10,12.5c0.5,7.7-5.4,14.4-13.1,14.8c-1.6,0.1-27.2,2.4-30.2-2.4
	C771.2-12,756.1-17.4,755.6-25.1z"/>
</svg>
