<?xml version="1.0" encoding="utf-8"?>
<!-- Generator: Adobe Illustrator 18.1.1, SVG Export Plug-In . SVG Version: 6.00 Build 0)  -->
<svg version="1.1" id="Layer_1"  xmlns="http://www.w3.org/2000/svg" xmlns:xlink="http://www.w3.org/1999/xlink"
     x="0px" y="0px" viewBox="0 0 219.3 180.3"
	 enable-background="new 0 0 219.3 180.3" xml:space="preserve">
<metadata>
	<sfw >
		<slices></slices>
		<sliceSourceBounds  width="1226.9" height="185.3" x="-306.9" y="-447.5" bottomLeftOrigin="true"></sliceSourceBounds>
	</sfw>
</metadata>
<path fill="#F7F9F8" d="M172.6,111.2c0,19.9-16.1,36-36,36c-6,0-76.7-10.2-79.2-10.2c-14.3,0-25.8-11.6-25.8-25.8
	c0-7.5,3.2-14.3,8.4-19c-1.3-3.5-2-7.2-2-11.1c0-17.3,14-31.3,31.3-31.3c4.9,0,9.5,1.1,13.6,3.1c6.5-5.3,14.7-8.5,23.8-8.5
	c18.7,0,34.2,13.7,37,31.6C160.2,79.1,172.6,93.7,172.6,111.2z"/>
<g>
	<path opacity="0.59" fill="#F7F9F8" d="M190.3,77.7c0,7.8-6.3,14-14,14c-4.3,0-8.1-1.9-10.7-4.9c0,0,0-0.1-0.1-0.1
		c0,0,0,0.1-0.1,0.1c-1.9,5-6.8,8.6-12.5,8.6c-5.8,0-10.8-3.7-12.6-8.9c-5.4-2-9.2-7.1-9.2-13.1c0-7.7,6.3-14,14-14
		c1.6,0,3.2,0.3,4.6,0.8c2.9-3,6.9-4.8,11.4-4.8c6,0,11.3,3.4,14,8.3c0.3,0,0.7,0,1,0C184,63.7,190.3,70,190.3,77.7z"/>
	<path opacity="0.59" fill="#F7F9F8" d="M202.2,97.7c0,7.8-6.3,14-14,14c-4.3,0-8.1-1.9-10.7-4.9c0,0,0-0.1-0.1-0.1
		c0,0,0,0.1-0.1,0.1c-1.9,5-6.8,8.6-12.5,8.6c-5.8,0-10.8-3.7-12.6-8.9c-5.4-2-9.2-7.1-9.2-13.1c0-7.7,6.3-14,14-14
		c1.6,0,3.2,0.3,4.6,0.8c2.9-3,6.9-4.8,11.4-4.8c6,0,11.3,3.4,14,8.3c0.3,0,0.7,0,1,0C195.9,83.7,202.2,90,202.2,97.7z"/>
</g>
</svg>
