<?xml version="1.0" encoding="utf-8"?>
<!-- Generator: Adobe Illustrator 18.1.1, SVG Export Plug-In . SVG Version: 6.00 Build 0)  -->
<svg version="1.1" id="Layer_1"  xmlns="http://www.w3.org/2000/svg" xmlns:xlink="http://www.w3.org/1999/xlink" x="0px" y="0px" viewBox="0 0 126.5 114.7"
	 enable-background="new 0 0 126.5 114.7" xml:space="preserve">
<metadata>
	<sfw >
		<slices></slices>
		<sliceSourceBounds  width="1226.9" height="185.3" x="-306.9" y="-447.5" bottomLeftOrigin="true"></sliceSourceBounds>
	</sfw>
</metadata>
<path opacity="0.46" fill="#F7F9F8" d="M100.7,55.7c0,8-6.5,14.4-14.4,14.4c-4.7,0-17-3.2-20.2-3.2c-4,0-15.3,0.3-18.6,0.3
	c-5.3,0-9.6-4.3-9.6-9.6c0-1.8,0.5-3.5,1.3-4.9c-0.9-1.4-1.3-3-1.3-4.7c0-5.1,4.3-9.3,9.6-9.3c2.3,0,4.5,0.8,6.1,2.1
	c2.9-3.6,7.4-6,12.5-6c5.9,0,11,3.2,13.8,7.9c1.9-1,4.1-1.5,6.4-1.5C94.2,41.2,100.7,47.7,100.7,55.7z"/>
</svg>
