<?xml version="1.0" encoding="utf-8"?>
<!-- Generator: Adobe Illustrator 18.1.1, SVG Export Plug-In . SVG Version: 6.00 Build 0)  -->
<svg version="1.1" id="Layer_1" xmlns:x="&ns_extend;" xmlns:i="&ns_ai;" xmlns:graph="&ns_graphs;"
	 xmlns="http://www.w3.org/2000/svg" xmlns:xlink="http://www.w3.org/1999/xlink" x="0px" y="0px" viewBox="0 0 1366 768"
	 enable-background="new 0 0 1366 768" xml:space="preserve">
<metadata>
	<sfw  xmlns="&ns_sfw;">
		<slices></slices>
		<sliceSourceBounds  width="6052.1" height="3936.7" x="-2226.4" y="-2058.2" bottomLeftOrigin="true"></sliceSourceBounds>
	</sfw>
</metadata>
<path opacity="0.55" fill="#FFFFFF" d="M1364.1,761.5L687,764.7l-3,0l-2.9,0L0,761.5c0,0-42.7-393.4,164.5-652
	C370.3-147.5,591-117.4,589.1-266.9C588-354.8,75.8-492.1,23.4-870.6C14.3-937,3-1039.3,0-1114.6c-2.9-72.4,15.8-183.9,15.8-183.9
	h1335.1c0,0,16.1,111.5,13.2,183.9c-3,75.3,1.8,177.8-8.4,244c-55.3,357.3-590.1,537.1-593.8,624.9
	c-5.3,125.3,290.1,171.9,437.8,355.3C1407.5,367.5,1364.1,761.5,1364.1,761.5z"/>
<polygon opacity="0.55" fill="#FFFFFF" points="684,764.7 681.1,764.8 681.1,764.7 "/>
<polygon opacity="0.55" fill="#FFFFFF" points="687,764.7 687,764.8 684,764.7 "/>
<path opacity="0.96" fill="#FFFFFF" d="M1366,715.9V433.6c1,14,1.6,28.4,1.7,43.1C1367.8,494.7,1366.6,637,1366,715.9z"/>
<path fill="#FFE69B" d="M5.1,758.8c0,0-21.6-379.3,125-582C159.6,136,321.8,85.6,385.5,57.5c136-60,300.9-114.7,330-110.3
	c62.1,9.5,160,94.3,350,158.3c76.1,25.6,152.7,45.5,194.4,105.2c57.2,82.1,85.9,269.5,95.8,364c4.5,43.3,0,183.1,0,183.1L5.1,758.8z
	"/>
<path fill="#FFE69B" d="M147.5,175.5c0,0,232-193,298-228.5s235.4-89.5,235.4-89.5l344.6,159L1213.1,166L147.5,175.5z"/>
</svg>
