<?xml version="1.0" encoding="utf-8"?>
<!-- Generator: Adobe Illustrator 18.1.1, SVG Export Plug-In . SVG Version: 6.00 Build 0)  -->
<svg version="1.1" id="Layer_1" 
	 xmlns="http://www.w3.org/2000/svg" xmlns:xlink="http://www.w3.org/1999/xlink" x="0px" y="0px" viewBox="0 0 1365.9 2063.3"
	 enable-background="new 0 0 1365.9 2063.3" xml:space="preserve">
<metadata>
	<sfw  >
		<slices></slices>
		<sliceSourceBounds  width="6052.1" height="3936.7" x="-2226.4" y="-2058.2" bottomLeftOrigin="true"></sliceSourceBounds>
	</sfw>
</metadata>
<path opacity="0.55" fill="#FFFFFF" d="M1364.1,2060l-677.1,3.2l-3,0l-2.9,0L0,2060c0,0-42.7-393.4,164.5-652
	C370.3,1151,591,1181.2,589.1,1031.6C588,943.8,75.8,806.4,23.4,427.9C14.3,361.5,3,259.2,0,183.9C-2.9,111.5,15.8,0,15.8,0h1335.1
	c0,0,16.1,111.5,13.2,183.9c-3,75.3,1.8,177.8-8.4,244c-55.3,357.3-590.1,537.1-593.8,624.9c-5.3,125.3,290.1,171.9,437.8,355.3
	C1407.5,1666.1,1364.1,2060,1364.1,2060z"/>
<polygon opacity="0.55" fill="#FFFFFF" points="684,2063.3 681.1,2063.3 681.1,2063.3 "/>
<polygon opacity="0.55" fill="#FFFFFF" points="687,2063.3 687,2063.3 684,2063.3 "/>
<path fill="#E2C479" d="M1339.2,413.9c0,0-53.9,0.2-110.6-24c-67.6-28.9-214.1-73.2-315.1-74c-150.6-1.2-206.3,54.4-460,60
	c-62,1.4-151.8-9.4-190-8.9c-201.7,2.9-238.4,0-238.4,0S18,504.4,139.9,640.5c110,122.8,422.5,346.6,547.1,340.7
	c133.3-6.3,437.9-199.6,548.8-340.7C1345.2,501.4,1339.2,413.9,1339.2,413.9z"/>
<path fill="#FFE69B" d="M35.4,456.3c0,0,73.9-48.3,259.7-49.8c185.8-1.5,411.3,46.9,613,49.8c201.7,2.9,430.5-16.1,430.5-16.1
	s-9.6,90.1-104,209.2c-76.8,96.9-275.7,240.2-425.1,305.7c-49.8,21.8-90,52.8-122.5,52.8c-37.5,0-91.9-31.7-147.5-55.3
	C397.4,892.1,220.4,768,132.7,649.4C64.1,556.6,35.4,456.3,35.4,456.3z"/>
<path fill="#FFE69B" d="M5.1,2057.3c0,0-21.6-379.3,125-582c29.5-40.8,191.8-91.2,255.4-119.3c136-60,300.9-114.7,330-110.3
	c62.1,9.5,160,94.3,350,158.3c76.1,25.6,152.7,45.5,194.4,105.2c57.2,82.1,85.9,269.5,95.8,364c4.5,43.3,0,183.1,0,183.1L5.1,2057.3
	z"/>
<path fill="#FFE69B" d="M147.5,1474c0,0,232-193,298-228.5s235.4-89.5,235.4-89.5l344.6,159l187.7,149.5L147.5,1474z"/>
</svg>
