<?xml version="1.0" encoding="utf-8"?>
<!-- Generator: Adobe Illustrator 18.1.1, SVG Export Plug-In . SVG Version: 6.00 Build 0)  -->
<svg version="1.1" id="Layer_1" xmlns:x="&ns_extend;" xmlns:i="&ns_ai;" xmlns:graph="&ns_graphs;"
	 xmlns="http://www.w3.org/2000/svg" xmlns:xlink="http://www.w3.org/1999/xlink" x="0px" y="0px" viewBox="0 0 1366 768"
	 enable-background="new 0 0 1366 768" xml:space="preserve">
<metadata>
	<sfw  xmlns="&ns_sfw;">
		<slices></slices>
		<sliceSourceBounds  width="6052.1" height="3936.7" x="-2226.4" y="-2058.2" bottomLeftOrigin="true"></sliceSourceBounds>
	</sfw>
</metadata>
<path opacity="0.55" fill="#FFFFFF" d="M1364.1,1103.5l-677.1,3.2l-3,0l-2.9,0L0,1103.5c0,0-42.7-393.4,164.5-652
	C370.3,194.5,591,224.6,589.1,75.1C588-12.8,75.8-150.1,23.4-528.6C14.3-595,3-697.3,0-772.6C-2.9-845,15.8-956.5,15.8-956.5h1335.1
	c0,0,16.1,111.5,13.2,183.9c-3,75.3,1.8,177.8-8.4,244C1300.4-171.3,765.6,8.4,761.8,96.2c-5.3,125.3,290.1,171.9,437.8,355.3
	C1407.5,709.5,1364.1,1103.5,1364.1,1103.5z"/>
<path fill="#E2C479" d="M1339.2-542.7c0,0-53.9,0.2-110.6-24c-67.6-28.9-214.1-73.2-315.1-74c-150.6-1.2-206.3,54.4-460,60
	c-62,1.4-151.8-9.4-190-8.9c-201.7,2.9-238.4,0-238.4,0S18-452.2,139.9-316C249.9-193.2,562.4,30.6,687,24.7
	C820.4,18.3,1124.9-175,1235.9-316C1345.2-455.2,1339.2-542.7,1339.2-542.7z"/>
<path fill="#FFE69B" d="M35.4-500.2c0,0,73.9-48.3,259.7-49.8s411.3,46.9,613,49.8c201.7,2.9,430.5-16.1,430.5-16.1
	s-9.6,90.1-104,209.2C1157.8-210.2,958.9-66.9,809.5-1.4c-49.8,21.8-90,52.8-122.5,52.8c-37.5,0-91.9-31.7-147.5-55.3
	C397.4-64.4,220.4-188.5,132.7-307.1C64.1-399.9,35.4-500.2,35.4-500.2z"/>
<path fill="#FFE69B" d="M5.1,1100.8c0,0-21.6-379.3,125-582c29.5-40.8,191.8-91.2,255.4-119.3c136-60,300.9-114.7,330-110.3
	c62.1,9.5,160,94.3,350,158.3c76.1,25.6,152.7,45.5,194.4,105.2c57.2,82.1,85.9,269.5,95.8,364c4.5,43.3,0,183.1,0,183.1L5.1,1100.8
	z"/>
<path fill="#FFE69B" d="M147.5,517.5c0,0,232-193,298-228.5s235.4-89.5,235.4-89.5l344.6,159L1213.1,508L147.5,517.5z"/>
</svg>
