<?xml version="1.0" encoding="utf-8"?>
<!-- Generator: Adobe Illustrator 18.1.1, SVG Export Plug-In . SVG Version: 6.00 Build 0)  -->
<svg version="1.1" id="Layer_1" 
	 xmlns="http://www.w3.org/2000/svg" xmlns:xlink="http://www.w3.org/1999/xlink" x="0px" y="0px" viewBox="0 0 1365.9 2063.3"
	 enable-background="new 0 0 1365.9 2063.3" xml:space="preserve">
<metadata>
	<sfw  >
		<slices></slices>
		<sliceSourceBounds  width="6052.1" height="3936.7" x="-2226.4" y="-2058.2" bottomLeftOrigin="true"></sliceSourceBounds>
	</sfw>
</metadata>
<polygon opacity="0.55" fill="#FFFFFF" points="684,2063.3 681.1,2063.3 681.1,2063.3 "/>
<polygon opacity="0.55" fill="#FFFFFF" points="687,2063.3 687,2063.3 684,2063.3 "/>
<path fill="#FFE69B" d="M35.4,456.3c0,0,73.9-48.3,259.7-49.8s411.3,46.9,613,49.8c201.7,2.9,430.5-16.1,430.5-16.1
	s-9.6,90.1-104,209.2c-76.8,96.9-275.7,240.2-425.1,305.7c-49.8,21.8-90,52.8-122.5,52.8c-37.5,0-91.9-31.7-147.5-55.3
	C397.4,892.1,220.4,768,132.7,649.4C64.1,556.6,35.4,456.3,35.4,456.3z"/>
</svg>
