<?xml version="1.0" encoding="utf-8"?>
<!-- Generator: Adobe Illustrator 18.1.1, SVG Export Plug-In . SVG Version: 6.00 Build 0)  -->
<svg version="1.1" id="Layer_1"
	 xmlns="http://www.w3.org/2000/svg" xmlns:xlink="http://www.w3.org/1999/xlink" x="0px" y="0px" viewBox="0 0 137.3 190.4"
	 enable-background="new 0 0 137.3 190.4" xml:space="preserve">
<metadata>
	<sfw >
		<slices></slices>
		<sliceSourceBounds  width="1373.5" height="469.3" x="-437" y="-707.2" bottomLeftOrigin="true"></sliceSourceBounds>
	</sfw>
</metadata>
<g>
	<path fill="#FCFCFC" d="M4.6,1.6h52.7c18.4,0,32.9,4,43.6,12c10.7,8,16,20.1,16,36.3c0,16.2-5.3,28.3-16,36.4
		c-10.7,8.1-25.2,12.1-43.6,12.1H23v84.1H4.6V1.6z M23,81.6h29.7c8.2,0,15.1-0.9,20.8-2.6c5.7-1.7,10.3-4,13.7-6.8
		c3.4-2.8,5.9-6.1,7.4-10c1.5-3.8,2.3-8,2.3-12.4c0-4.3-0.8-8.3-2.3-12.1c-1.5-3.8-4-7.2-7.4-10.1c-3.4-2.9-8-5.2-13.7-6.8
		c-5.7-1.6-12.7-2.4-20.8-2.4H23V81.6z"/>
</g>
<text transform="matrix(1 0 0 1 -29.4467 -41.2372)" fill="#FCFCFC" font-family="'Avenir-Book'" font-size="255.6828">PENN PLAY</text>
</svg>
